<?xml version="1.0" encoding="utf-8"?>
<!-- Generator: Adobe Illustrator 24.0.0, SVG Export Plug-In . SVG Version: 6.00 Build 0)  -->
<svg version="1.1" id="Layer_1" xmlns="http://www.w3.org/2000/svg" xmlns:xlink="http://www.w3.org/1999/xlink" x="0px" y="0px"
	 viewBox="0 0 1043.9 827.3" style="enable-background:new 0 0 1043.9 827.3;" xml:space="preserve">
<style type="text/css">
	.st0{clip-path:url(#SVGID_2_);}
	.st1{fill:url(#SVGID_3_);}
	.st2{fill:url(#SVGID_4_);}
	.st3{fill:url(#SVGID_5_);}
	.st4{fill:url(#SVGID_6_);}
	.st5{fill:url(#SVGID_7_);}
	.st6{fill:url(#SVGID_8_);}
	.st7{fill:url(#SVGID_9_);}
	.st8{fill:url(#SVGID_10_);}
	.st9{fill:url(#SVGID_11_);}
	.st10{fill:url(#SVGID_12_);}
	.st11{fill:url(#SVGID_13_);}
	.st12{fill:url(#SVGID_14_);}
	.st13{fill:#113F82;}
</style>
<g>
	<g>
		<defs>
			<path id="SVGID_1_" d="M564.4,283.3c0,0-11.3-7.6,121.5-2.5s137.8,5.1,137.8,5.1l99,20.3l66.4,172.2l15,146.9L752.4,672
				l-268.1-74.7L564.4,283.3z"/>
		</defs>
		<clipPath id="SVGID_2_">
			<use xlink:href="#SVGID_1_"  style="overflow:visible;"/>
		</clipPath>
		<g class="st0">
			
				<linearGradient id="SVGID_3_" gradientUnits="userSpaceOnUse" x1="372.2387" y1="1464.5911" x2="697.4943" y2="1464.5911" gradientTransform="matrix(0.3105 0 0 0.7625 373.9527 -980.6506)">
				<stop  offset="5.586592e-03" style="stop-color:#00002A"/>
				<stop  offset="0.9972" style="stop-color:#2AD2FF"/>
				<stop  offset="1" style="stop-color:#FFFFFF"/>
			</linearGradient>
			<path class="st1" d="M590.5,127.7l-1.8,9l-0.9,12.6l-1.8,3.6l-1.8,13.5c0,1.8,0,2.7-0.9,3.6c-0.9,0.9-0.9,1.8-0.9,1.8l-1.8,1.8
				l-9.8,19.9l-2.7,2.7c-0.9,0.9-1.8,2.7-3.6,6.3v-2.7l-7.1,13.5l-2.7,3.6l-7.1,9.9c-0.9-0.9-1.8-1.8-2.7-1.8s-1.8,0.9-1.8,1.8
				s-0.9,1.8-0.9,2.7l-1.8-0.9l-2.7,6.3l-1.8-1.8l-0.9,1.8h-2.7l-1.8,3.6l-5.4-0.9l-8,3.6c0,0-0.9,0-1.8,0l-2.7,0.9l-2.7-0.9
				l-0.9-1.8l-3.6-3.6l-3.6-4.5H500v-8.1l-2.7,1.8l-0.9-3.6c-0.9-1.8-0.9-2.7-1.8-3.6l-2.7-2.7c-0.9-6.3-1.8-12.6-1.8-20.8l-0.9-2.7
				v-16.3l2.7-18.1v-9l1.8-3.6l-0.9-7.2l2.7-5.4v-4.5l0.9-5.4v-4.5l0.9-5.4l-0.9-1.8l0.9-0.9l3.6-19.9l6.3-25.3
				c0.9-0.9,1.8-1.8,1.8-4.5c0-1.8,1.8-4.5,3.6-8.1v-3.6h1.8l-0.9-2.7c0.9-3.6,2.7-5.4,5.4-7.2l0.9-3.6l0,0c0,0,0.9-0.9,3.6-0.9
				l8-2.7l4.5,1.8h3.6h4.5c0.9,0.9,1.8,0.9,2.7,0.9c1.8,0,2.7-0.9,3.6-3.6c0.9,0.9,0.9,1.8,1.8,1.8h0.9c0,2.7,0.9,3.6,1.8,3.6
				c0,0.9,1.8,1.8,3.6,2.7l0.9,2.7l2.7,0.9h3.6l4.5,5.4h-0.9l2.7,5.4c0,0.9,0.9,2.7,1.8,5.4l2.7,2.7l0.9,5.4l2.7,2.7l5.4,22.6
				c0,1.8,0.9,5.4,1.8,11.7l1.8,14.5c0.9,3.6,0.9,5.4,0.9,7.2v2.7h0.6V127.7z M585.2,116.8l-1.8-9v-2.7c0-0.9,0-2.7,0-4.5
				s-1.8-3.6-3.6-7.2l-0.9-8.1l-0.9-0.9l-0.9-4.5l-4.5-12.6l-4.5-9l-0.9,0.9l-6.3-9c-0.9-0.9-1.8-1.8-3.6-1.8
				c-1.8-0.9-2.7-1.8-4.5-3.6c0,0,0,0-0.9,0c0,0-0.9,0-2.7-0.9l-0.9,1.8l-2.7-1.8l-1.8,1.8c-1.8-0.9-2.7-1.8-2.7-1.8s-0.9,0-1.8,0.9
				c-0.9,0.9-0.9,0.9-1.8,0.9s-0.9,0-0.9-0.9c-0.9,1.8-1.8,3.6-2.7,5.4c-0.9,1.8-1.8,3.6-3.6,5.4l-2.7-1.8l-2.7,3.6l-2.7-0.9
				l-0.9,0.9c0,0-0.9,0.9-0.9,1.8s-0.9,0.9-0.9,1.8c0,0.9-0.9,1.8-1.8,2.7c-0.9,0.9-0.9,1.8-1.8,3.6c-0.9,0.9-1.8,2.7-2.7,3.6
				c0,0.9-0.9,3.6-1.8,8.1v5.4l-2.7,3.6c0,0-0.9,1.8-1.8,5.4c-0.9,4.5-1.8,8.1-2.7,10.8v5.4c-0.9,0.9-1.8,2.7-2.7,5.4l-1.8,11.7
				l-2.7,4.5c0,17.2-0.9,26.2-1.8,28.9s-0.9,5.4-1.8,7.2c0,1.8-0.9,4.5-0.9,7.2s-0.9,6.3-0.9,10.8l0.9,4.5l0.9,7.2l1.8,5.4
				c0,0.9,0,1.8,0.9,2.7v4.5c1.8,6.3,4.5,9.9,8,12.6c3.6,2.7,5.4,3.6,5.4,3.6l5.4-3.6l0.9,2.7h2.7v2.7h2.7l0.9-5.4l2.7-0.9l6.3,1.8
				c0.9-2.7,0.9-3.6,1.8-3.6h0.9c2.7-3.6,4.5-5.4,5.4-5.4h0.9l3.6-5.4c0-0.9,1.8-0.9,3.6-0.9l1.8-4.5c3.6,0,6.3-0.9,7.1-1.8
				c0.9-0.9,0.9-1.8,1.8-3.6c0.9-0.9,1.8-2.7,3.6-3.6l0.9-8.1h0.9v-2.7c0.9-0.9,2.7-2.7,3.6-5.4l1.8,0.9l0.9-3.6l2.7-5.4l4.5-12.6
				l2.7-2.7l0.9-7.2l1.8-3.6l-0.9-7.2l0.9-6.3l-0.9-11.7L585.2,116.8z"/>
			
				<linearGradient id="SVGID_4_" gradientUnits="userSpaceOnUse" x1="729.1537" y1="1482.6893" x2="1063.0468" y2="1482.6893" gradientTransform="matrix(0.3105 0 0 0.7625 373.9527 -980.6506)">
				<stop  offset="5.586592e-03" style="stop-color:#00002A"/>
				<stop  offset="0.9972" style="stop-color:#2AD2FF"/>
				<stop  offset="1" style="stop-color:#FFFFFF"/>
			</linearGradient>
			<path class="st2" d="M704,68.1l-0.9,5.4v3.6l-1.8,20.8l-1.8,6.3l-0.9,9l-1.8,6.3l-2.7,16.3l-2.7,14.5l-4.5,19l-0.9,6.3l-2.7,11.7
				l-2.7,16.3l-5.4,24.4c-0.9,8.1-1.8,12.6-1.8,13.5c-1.8-0.9-2.7-2.7-3.6-3.6l-2.7-19l-2.7-13.5v-3.6l-2.7-15.4l-0.9-3.6l-5.4-32.5
				l-4.5-23.5c0-0.9-0.9-0.9-0.9-0.9c-0.9,0-0.9,0-1.8,0.9l-3.6,13.5l-2.7,6.3l-3.6,14.5l-2.7,9l-1.8,11.7l-3.6,12.6v4.5
				c-1.8,9-2.7,14.5-2.7,15.4v5.4l-0.9,5.4l-1.8,11.7v1.8h-0.9c0,0-0.9,0.9-2.7,1.8c0-0.9-0.9-1.8-1.8-2.7v-1.8l-0.9-4.5l-0.9-10.8
				l-1.8-7.2V208v-2.7l-2.7-19l-0.9-14.5l-0.9-3.6v-4.5l-1.8-11.7v-3.6l-1.8-11.7l-1.8-7.2v-8.1v-3.6l-1.8-11.7v-5.4
				c0-1.8-0.9-3.6-0.9-7.2c-0.9-2.7-0.9-5.4-0.9-8.1c0-0.9,0-2.7,0-3.6l-0.9-0.9l-1.8-13.5l1.8-1.8c0-2.7,0-3.6,0.9-3.6l2.7-0.9
				l0.9,3.6h1.8l0.9,7.2l0.9,1.8V78l0.9,4.5l-0.9,4.5l1.8,8.1v5.4l1.8,19.9v5.4l0.9,13.5l1.8,14.5l0.9,19l1.8,4.5v9
				c0.9,8.1,1.8,13.5,1.8,17.2l1.8,3.6l0.9,5.4h1.8l8-34.3c0.9,0,0.9-2.7,0.9-7.2c0.9-1.8,1.8-4.5,1.8-6.3c0-2.7,0-5.4,0.9-9
				c0.9-1.8,0.9-3.6,0.9-5.4c0.9,0.9,1.8,1.8,2.7,1.8c0-1.8-0.9-3.6-0.9-5.4s0-3.6,0.9-3.6h0.9l0,0v-0.9v-0.9c0-0.9,0-1.8,0.9-2.7
				V135v-1.8c0-0.9,0-1.8,0.9-1.8c0,0,0,0.9,0,1.8c0.9-1.8,0.9-1.8,1.8-1.8h0.9V126l0.9-3.6l-0.9-5.4l0.9,0.9V115l1.8-1.8l-0.9-1.8
				l0.9-1.8v-1.8h1.8c-1.8-3.6-1.8-8.1-1.8-11.7c0-2.7,0-5.4,0.9-9l2.7-0.9c0.9,2.7,1.8,5.4,2.7,9l0.9,9c0,0.9,0.9,3.6,1.8,7.2v4.5
				l0.9,9.9v5.4l2.7,13.5v3.6l0.9,2.7l2.7,18.1v7.2l1.8,6.3l5.4,29.8l2.7,1.8l5.4-28l1.8-4.5l0.9-9l1.8-2.7v-7.2
				c2.7-3.6,3.6-7.2,3.6-10.8v-6.3h0.9v-1.8l0.9-2.7l2.7-13.5c0-3.6,0.9-8.1,2.7-13.5v-3.6l2.7-8.1l1.8-13.5
				c-0.9-9.9-1.8-18.1-1.8-23.5c0-3.6,0.9-6.3,1.8-7.2l1.8,1.8c0,0.9,0.9,1.8,1.8,2.7v4.5L704,68.1z"/>
			
				<linearGradient id="SVGID_5_" gradientUnits="userSpaceOnUse" x1="1103.3409" y1="1474.2959" x2="1307.7094" y2="1474.2959" gradientTransform="matrix(0.3105 0 0 0.7625 373.9527 -980.6506)">
				<stop  offset="5.586592e-03" style="stop-color:#00002A"/>
				<stop  offset="0.9972" style="stop-color:#2AD2FF"/>
				<stop  offset="1" style="stop-color:#FFFFFF"/>
			</linearGradient>
			<path class="st3" d="M774.6,235.2l-2.7,2.7l-0.9,3.6c-0.9,0.9-1.8,0.9-2.7,1.8l-0.9-1.8l-0.9,1.8l-2.7-8.1v-9l-0.9-2.7v-12.6
				l-0.9-26.2l0.9-9l-0.9-4.5l1.8-1.8l-0.9-3.6V162l0.9-1.8v-5.4h0.9v-8.1V143c0,0-0.9-1.8-1.8-3.6l-2.7,2.7
				c-0.9,3.6-1.8,5.4-1.8,6.3v4.5l-1.8,1.8v5.4l-0.9,1.8v2.7c-0.9,1.8-1.8,4.5-2.7,7.2l-0.9,1.8l-2.7,10.8l-3.6,9.9l-0.9,5.4l-3.6,9
				l-0.9,4.5l-4.5,8.1l-5.4,15.4l-1.8,0.9c-0.9,0-1.8,1.8-2.7,4.5h-0.9c-0.9,0-1.8-1.8-1.8-6.3c-4.5-3.6-6.3-9.9-6.3-17.2l0.9-1.8
				c-0.9-5.4-0.9-10.8-0.9-16.3l-0.9-1.8l0.9-1.8c0-0.9,0-1.8,0.9-4.5c0-1.8,0-4.5,0.9-8.1l0.9-15.4c0-0.9,0-1.8,0-2.7
				c0-1.8,0-2.7,0.9-4.5c0-1.8,0-3.6,0-4.5s0-2.7,0-4.5h0.9c0.9-2.7,1.8-5.4,1.8-8.1c0-0.9,0-2.7-0.9-3.6c0-0.9-0.9-0.9-0.9-1.8
				c0-0.9,0-1.8,0.9-1.8c-0.9,0-0.9-0.9-0.9-2.7c0-0.9,0.9-1.8,1.8-1.8V132c0-2.7,0-5.4,0.9-8.1s0.9-4.5,0.9-5.4l-0.9-0.9l1.8-9
				v-1.8c0-5.4,0.9-10.8,2.7-15.4v-7.2l0.9-0.9c0-0.9-0.9-2.7-0.9-3.6s0-0.9,0.9-0.9v-6.3c0.9,0,0.9-0.9,0.9-1.8s0-1.8,0-1.8
				c0-0.9,0.9-3.6,2.7-6.3c0.9-3.6,1.8-6.3,2.7-8.1h0.9c0.9,0,1.8-0.9,1.8-1.8c0-0.9,0-0.9-0.9-1.8c1.8,0,3.6-0.9,3.6-3.6l2.7-3.6
				l8.9,1.8v1.8l7.1,3.6h0.9c0.9,0,1.8,0.9,1.8,3.6l0.9-0.9c0,2.7,0.9,3.6,1.8,3.6h0.9l1.8,3.6l3.6,1.8v3.6c1.8-2.7,3.6-4.5,6.3-6.3
				v6.3h-0.9l1.8,1.8v1l0.9,10.8l-1.8,3.6l-0.9,7.2c0,2.7-0.9,5.4-1.8,8.1l0.9,5.4c0,0,0,1.8-0.9,3.6c-0.9,1.8-0.9,4.5-0.9,9
				c0,0,0.9,0.9,0.9,1.8v3.6v2.7l-0.9,4.5v3.6l-0.9,2.7v9l-0.9,0.9l0.9,1.8l-0.9,0.9c0,0,0,0.9,0,1.8s0,2.7-0.9,3.6l0.9,2.7
				l-0.9,3.6c0,0.9-0.9,2.7-0.9,5.4l0.9,5.4l-1.8,5.4c0.9,2.7,0.9,4.5,1.8,5.4c-0.9,2.7-1.8,8.1-1.8,16.3l1.8,0.9v1.8
				c0,0,0,0.9,0,2.7s0,4.5-0.9,8.1h0.9l0.9,6.3l3.6,0.9l0.9,5.4c0,0.9-0.9,0.9-0.9,1.8s0.9,2.7,1.8,3.6l0,0l0,0
				C772.8,232.4,773.7,233.4,774.6,235.2z M765.7,87l-0.9-7.2l-2.7-1.8l-4.5-9.9c-0.9-0.9-0.9-1.8-1.8-1.8c0,0-0.9,0-0.9,0.9
				l-0.9-1.8h-2.7l-0.9-2.7l-1.8,1.8l-0.9-1.8l-1.8,0.9l-2.7-0.9c-0.9,0-3.6,1.8-6.3,4.5V69l-1.8,0.9v1.8l-1.8,0.9v2.7
				c-0.9,1.8-2.7,6.3-3.6,13.5c-0.9,8.1-1.8,15.4-2.7,20.8l0.9,1.8l-1.8,4.5l0.9,3.6c-0.9,3.6-1.8,8.1-1.8,12.6v1.8l-0.9,4.5v7.2
				c-0.9,2.7-1.8,4.5-1.8,7.2l-0.9,1.8v7.2l-0.9,1.8c0,2.7,0,6.3-0.9,10.8l0.9,5.4c-0.9,0.9-1.8,2.7-2.7,5.4l0.9,3.6l-0.9,3.6
				l0.9,8.1l-1.8,5.4v9.9l-0.9,4.5l0.9,0.9v2.7c0.9,0.9,1.8,2.7,2.7,4.5l3.6-1.8c0.9-3.6,1.8-6.3,3.6-6.3V218
				c1.8-0.9,2.7-1.8,2.7-1.8s0-0.9,0-2.7s0.9-2.7,1.8-4.5l0,0c0,0,0.9-0.9,0.9-1.8l2.7-9h-0.9l1.8-3.6c0.9-1.8,1.8-2.7,2.7-3.6
				l0.9-8.1c1.8-1.8,3.6-5.4,3.6-9h0.9l1.8-5.4v-3.6l1.8-0.9c0-0.9,0-1.8,0-1.8s0-1.8,0.9-4.5s1.8-4.5,1.8-6.3l0.9,0.9
				c0-3.6,0.9-5.4,1.8-7.2c0-1.8,0.9-3.6,0.9-5.4c0.9-0.9,0.9-1.8,1.8-1.8h0.9v-5.4c0-0.9,0-0.9,0-1.8s0-1.8-0.9-2.7
				c0.9-3.6,1.8-6.3,2.7-7.2v-4.5l0.9-1.8v-3.6c0.9-2.7,0.9-5.4,0.9-7.2l1.8-3.6L765.7,87z"/>
			
				<linearGradient id="SVGID_6_" gradientUnits="userSpaceOnUse" x1="1368.1411" y1="1486.6652" x2="1788.3938" y2="1486.6652" gradientTransform="matrix(0.3105 0 0 0.7625 373.9527 -980.6506)">
				<stop  offset="5.586592e-03" style="stop-color:#00002A"/>
				<stop  offset="0.9972" style="stop-color:#2AD2FF"/>
				<stop  offset="1" style="stop-color:#FFFFFF"/>
			</linearGradient>
			<path class="st4" d="M929.2,203.5l-0.9,3.6l-0.9,0.9c0,2.7,0,4.5-0.9,6.3s-0.9,2.7-0.9,3.6v0.9l-0.9,0.9c0,1.8-0.9,3.6-1.8,4.5
				c-0.9,1.8-1.8,1.8-1.8,1.8l-1.8-0.9v4.5c-0.9,1.8-1.8,3.6-1.8,3.6s-0.9,0-1.8-0.9c-0.9,1.8-2.7,2.7-3.6,2.7
				c-0.9,0-2.7-0.9-5.4-1.8c0-0.9-0.9-1.8-0.9-1.8s-0.9,0-1.8,0.9c0-1.8-0.9-3.6-2.7-5.4v-2.7c-0.9-0.9-1.8-4.5-1.8-8.1v-3.6
				L898,209l-0.9-12.6l-1.8-6.3v-2.7l-0.9-13.5v-5.4l-0.9-14.5v-6.3v-12.6l-0.9-16.3l-1.8,5.4l-3.6,15.4l-1.8,9
				c-1.8,3.6-3.6,8.1-4.5,13.5c-0.9,0-1.8,2.7-1.8,9c-0.9,1.8-0.9,3.6-1.8,5.4c-0.9,1.8-0.9,3.6-0.9,4.5s-0.9,1.8-0.9,1.8v0.9
				c-1.8,4.5-2.7,9-3.6,13.5c0,0.9-0.9,2.7-1.8,6.3c-0.9,3.6-2.7,8.1-4.5,14.5c-0.9,0.9-1.8,3.6-2.7,7.2c0,2.7-0.9,4.5-1.8,4.5
				c-0.9,0.9-0.9,1.8-0.9,4.5v1.8c-0.9,0-2.7,0.9-5.4,3.6c-0.9,0-1.8-1.8-1.8-4.5v-5.4l-0.9-5.4v-4.5l-1.8-13.5c0-0.9,0-1.8,0-2.7
				s0-2.7-0.9-5.4l0.9-13.5l-0.9-2.7l0.9-6.3v-3.6v-2.7l-0.9-3.6l0.9-6.3l-0.9-12.6V143l0.9-15.4l-0.9-9v-7.2l-0.9-5.4
				c-0.9-6.3-1.8-10.8-1.8-12.6c0-1.8-0.9-2.7-0.9-2.7s0,0-0.9,0c0,0-1.8,1.8-4.5,5.4l-2.7,8.1l-1.8,5.4l-4.5,15.4v4.5l-2.7,7.2
				l-0.9,8.1c-0.9,1.8-0.9,3.6-1.8,7.2c0,3.6-0.9,5.4-1.8,5.4s-0.9,1.8-1.8,2.7v7.2c-0.9,1.8-0.9,3.6-1.8,6.3
				c-0.9,2.7-0.9,4.5-1.8,6.3c-0.9,1.8-0.9,4.5-1.8,8.1c-0.9,0-1.8,1.8-1.8,5.4c0,2.7-0.9,4.5-1.8,4.5c0,2.7-0.9,4.5-0.9,5.4v0.9
				c-1.8,2.7-1.8,4.5-1.8,5.4s0,1.8,0.9,2.7c-0.9,1.8-1.8,3.6-2.7,7.2c-0.9,3.6-0.9,5.4-1.8,6.3v1.8c0,1.8,0,3.6-0.9,3.6
				c0,0.9-0.9,2.7-2.7,5.4c-0.9,2.7-1.8,3.6-2.7,3.6s-1.8-2.7-1.8-9c0-0.9,0-0.9,0-2.7s0-3.6-0.9-5.4V218c0-1.8,0-4.5,0.9-6.3
				l-0.9-9v-6.3v-7.2v-1.8c0-2.7,0-5.4,0.9-6.3v-3.6c0-0.9,0-2.7,0-6.3c0-2.7,0-4.5,0-5.4v-6.3c0-2.7,0.9-4.5,1.8-6.3l-0.9-4.5
				c0-0.9,0.9-1.8,0-2.7c0-0.9,0-1.8,0-2.7s0-2.7,0.9-4.5c0.9-2.7,0.9-4.5,0.9-7.2l-0.9-8.1l0.9-3.6l-0.9-14.5l0.9-5.4l-0.9-11.7
				v-7.2l-0.9-6.3c0.9-6.3,2.7-9.9,3.6-9l0.9,0.9l0.9,5.4c1.8,0.9,1.8,2.7,1.8,6.3v9c0,1.8,0.9,2.7,1.8,3.6c-0.9,3.6-1.8,7.2-1.8,9
				v1.8l0.9,20.8V138l-0.9,4.5l0.9,5.4l-0.9,1.8l0.9,2.7c-0.9,1.8-0.9,3.6-0.9,5.4v3.6c0,1.8,0,3.6-0.9,4.5l0.9,11.7l-0.9,4.5
				c-0.9,2.7-0.9,5.4-0.9,7.2s0,3.6,0,4.5c0,1.8,0,2.7,0,3.6c0.9,2.7,0.9,4.5,0.9,4.5c0,0.9,0,2.7-0.9,4.5l1.8,2.7l3.6-9.9l0.9-5.4
				c0.9-0.9,0.9-1.8,1.8-3.6c0-1.8,0.9-3.6,0.9-4.5c0-1.8,0.9-4.5,1.8-8.1c0,0,0.9-0.9,0.9-1.8c0.9-0.9,0.9-3.6,1.8-5.4
				c0.9-2.7,1.8-5.4,2.7-7.2c0-0.9,0-2.7,0.9-4.5c0-1.8,0.9-2.7,0.9-3.6s0.9-3.6,1.8-8.1l1.8-8.1v-2.7c0-0.9,0.9-2.7,1.8-5.4
				l2.7-8.1c0,0,0.9-2.7,1.8-7.2c0.9-4.5,1.8-8.1,2.7-10.8c0.9-2.7,1.8-4.5,1.8-6.3c0.9,0,1.8-1.8,1.8-3.6c0.9-0.9,1.8-2.7,1.8-5.4
				h0.9c0.9,0,0.9-2.7,1.8-8.1c1.8-3.6,2.7-5.4,3.6-5.4c0,0,1.8,0.9,3.6,2.7c0,0.9,0,1.8,0,2.7c0,0.9,0,0.9,0,2.7l0.9,0.9
				c0,0.9,0.9,4.5,2.7,9.9v6.3l1.8,4.5v5.4c0.9,6.3,1.8,11.7,1.8,16.3l-0.9,6.3l0.9,5.4l-1.8,4.5l0.9,12.6c0,2.7-0.9,6.3-0.9,9.9
				l0.9,10.8v3.6v4.5l-0.9,1.8c0.9,9,0.9,16.3,0.9,22.6v3.6l-0.9,1.8c0.9,2.7,0.9,6.3,0.9,9l2.7,1.8l8-23.5c0-0.9,0.9-2.7,1.8-7.2
				c0.9-3.6,0.9-7.2,1.8-9c0.9,0,0.9-1.8,0.9-6.3c0-3.6,0.9-6.3,1.8-6.3c0-1.8,0-3.6,0-4.5s0.9-2.7,2.7-5.4V162
				c0-3.6,0.9-8.1,3.6-11.7c0.9-4.5,0.9-8.1,1.8-11.7c1.8-3.6,2.7-6.3,2.7-9l1.8-8.1c0.9-2.7,0.9-6.3,1.8-9
				c1.8-1.8,3.6-7.2,4.5-16.3c0.9-0.9,1.8-3.6,2.7-9l2.7-2.7l2.7,2.7l-0.9,1.8l0.9,2.7c-0.9,0.9-0.9,1.8-0.9,2.7
				c0,0.9,0,1.8,0.9,2.7l-0.9,5.4l-0.9,19c0.9,0.9,0.9,1.8,0.9,2.7c-0.9,3.6-0.9,8.1-0.9,14.5v7.2v2.7l0.9,5.4c0,0,0,0.9-0.9,1.8
				c0,0.9-0.9,1.8-0.9,2.7s0,1.8,0.9,3.6c0.9,0.9,0.9,2.7,0.9,5.4c0,0.9,0,1.8-0.9,2.7c0,0.9,0,1.8,0,1.8s0,0.9-0.9,2.7
				c0,5.4,0.9,10.8,1.8,17.2c0,2.7,0.9,7.2,0.9,14.5l1.8,2.7l0.9,9c0.9,1.8,1.8,3.6,2.7,5.4l1.8,1.8l2.7,0.9
				c0.9,0.9,1.8,0.9,1.8,0.9c0.9,0,1.8-0.9,2.7-1.8c0.9-0.9,1.8-1.8,2.7-2.7s1.8-2.7,2.7-3.6c0.9-2.7,1.8-6.3,2.7-9.9l1.8-2.7
				l0.9-4.5h2.7C929.2,200.8,929.2,203.5,929.2,203.5z"/>
			
				<linearGradient id="SVGID_7_" gradientUnits="userSpaceOnUse" x1="1828.689" y1="1474.2959" x2="2027.2993" y2="1474.2959" gradientTransform="matrix(0.3105 0 0 0.7625 373.9527 -980.6506)">
				<stop  offset="5.586592e-03" style="stop-color:#00002A"/>
				<stop  offset="0.9972" style="stop-color:#2AD2FF"/>
				<stop  offset="1" style="stop-color:#FFFFFF"/>
			</linearGradient>
			<path class="st5" d="M999.9,235.2l-2.7,2.7l-0.9,3.6c-0.9,0.9-1.8,0.9-2.7,1.8l-0.9-1.8l-0.9,1.8l-2.7-8.1v-9l-0.9-2.7v-12.6
				l-0.9-26.2l0.9-9l-0.9-4.5l1.8-1.8l-0.9-3.6V162l0.9-1.8v-5.4h0.9v-8.1V143c0,0-0.9-1.8-1.8-3.6l-2.7,2.7
				c-0.9,3.6-1.8,5.4-1.8,6.3v4.5l-1.8,1.8v5.4l-0.9,1.8v2.7c-0.9,1.8-1.8,4.5-2.7,7.2l-0.9,1.8l-2.7,10.8l-3.6,9.9l-0.9,5.4l-3.6,9
				l-0.9,4.5l-4.5,8.1l-5.4,15.4l-1.8,0.9c-0.9,0-1.8,1.8-2.7,4.5h-0.9c-0.9,0-1.8-1.8-1.8-6.3c-4.5-3.6-6.3-9.9-6.3-17.2l0.9-1.8
				c-0.9-5.4-0.9-10.8-0.9-16.3l-0.9-1.8l0.9-1.8c0-0.9,0-1.8,0.9-4.5c0-1.8,0-4.5,0.9-8.1l0.9-15.4c0-0.9,0-1.8,0-2.7
				c0-1.8,0-2.7,0.9-4.5c0-1.8,0-3.6,0-4.5s0-2.7,0-4.5h0.9c0.9-2.7,1.8-5.4,1.8-8.1c0-0.9,0-2.7-0.9-3.6c0-0.9-0.9-0.9-0.9-1.8
				c0-0.9,0-1.8,0.9-1.8c-0.9,0-0.9-0.9-0.9-2.7c0-0.9,0.9-1.8,1.8-1.8V132c0-2.7,0-5.4,0.9-8.1s0.9-4.5,0.9-5.4l-0.9-0.9l1.8-9
				v-1.8c0-5.4,0.9-10.8,2.7-15.4v-7.2l0.9-0.9c0-0.9-0.9-2.7-0.9-3.6s0-0.9,0.9-0.9v-6.3c0.9,0,0.9-0.9,0.9-1.8s0-1.8,0-1.8
				c0-0.9,0.9-3.6,2.7-6.3c0.9-3.6,1.8-6.3,2.7-8.1h0.9c0.9,0,1.8-0.9,1.8-1.8c0-0.9,0-0.9-0.9-1.8c1.8,0,3.6-0.9,3.6-3.6l2.7-3.6
				l8.9,1.8v1.8l7.1,3.6h0.9c0.9,0,1.8,0.9,1.8,3.6l0.9-0.9c0,2.7,0.9,3.6,1.8,3.6h0.9l1.8,3.6l3.6,1.8v3.6c1.8-2.7,3.6-4.5,6.3-6.3
				v6.3H997l1.8,1.8v1l0.9,10.8l-1.8,3.6l-0.9,7.2c0,2.7-0.9,5.4-1.8,8.1l0.9,5.4c0,0,0,1.8-0.9,3.6c-0.9,1.8-0.9,4.5-0.9,9
				c0,0,0.9,0.9,0.9,1.8v3.6v2.7l-0.9,4.5v3.6l-0.9,2.7v9l-0.9,0.9l0.9,1.8l-0.9,0.9c0,0,0,0.9,0,1.8s0,2.7-0.9,3.6l0.9,2.7
				l-0.9,3.6c0,0.9-0.9,2.7-0.9,5.4l0.9,5.4l-1.8,5.4c0.9,2.7,0.9,4.5,1.8,5.4c-0.9,2.7-1.8,8.1-1.8,16.3l1.8,0.9v1.8
				c0,0,0,0.9,0,2.7s0,4.5-0.9,8.1h0.9l0.9,6.3l3.6,0.9l0.9,5.4c0,0.9-0.9,0.9-0.9,1.8s0.9,2.7,1.8,3.6l0,0l0,0
				C999,232.4,999,233.4,999.9,235.2z M991.8,87l-0.9-7.2l-2.7-1.8l-4.5-9.9c-0.9-0.9-0.9-1.8-1.8-1.8c0,0-0.9,0-0.9,0.9l-1.8-2.7
				h-2.7l-0.9-2.7l-1.8,1.8l-0.9-1.8l-1.8,0.9l-2.7-0.9c-0.9,0-3.6,1.8-6.3,4.5v1.8l-1.8,0.9v1.8l-1.8,0.9v2.7
				c-0.9,1.8-2.7,6.3-3.6,13.5c-0.9,8.1-1.8,15.4-2.7,20.8l0.9,1.8l-1.8,4.5l0.9,3.6c-0.9,3.6-1.8,8.1-1.8,12.6v1.8l-0.9,4.5v7.2
				c-0.9,2.7-1.8,4.5-1.8,7.2l-0.9,1.8v7.2l-0.9,1.8c0,2.7,0,6.3-0.9,10.8l0.9,5.4c-0.9,0.9-1.8,2.7-2.7,5.4l0.9,3.6l-0.9,3.6
				l0.9,8.1l-1.8,5.4v9.9l-0.9,4.5l0.9,0.9v2.7c0.9,0.9,1.8,2.7,2.7,4.5l3.6-1.8c0.9-3.6,1.8-6.3,3.6-6.3v-2.7
				c1.8-0.9,2.7-1.8,2.7-1.8s0-0.9,0-2.7s0.9-2.7,1.8-4.5l0,0c0,0,0.9-0.9,0.9-1.8l2.7-9h-0.9l1.8-3.6c0.9-1.8,1.8-2.7,2.7-3.6
				l0.9-8.1c1.8-1.8,3.6-5.4,3.6-9h0.9l1.8-5.4v-3.6l1.8-0.9c0-0.9,0-1.8,0-1.8s0-1.8,0.9-4.5s1.8-4.5,1.8-6.3l0.9,0.9
				c0-3.6,0.9-5.4,1.8-7.2c0-1.8,0.9-3.6,0.9-5.4c0.9-0.9,0.9-1.8,1.8-1.8h0.9v-5.4c0-0.9,0-0.9,0-1.8s0-1.8-0.9-2.7
				c0.9-3.6,1.8-6.3,2.7-7.2V115l0.9-1.8v-3.6c0.9-2.7,0.9-5.4,0.9-7.2l1.8-3.6L991.8,87z"/>
			
				<linearGradient id="SVGID_8_" gradientUnits="userSpaceOnUse" x1="2110.7708" y1="1356.9845" x2="2174.0977" y2="1356.9845" gradientTransform="matrix(0.3105 0 0 0.7625 373.9527 -980.6506)">
				<stop  offset="5.586592e-03" style="stop-color:#00002A"/>
				<stop  offset="0.9972" style="stop-color:#2AD2FF"/>
				<stop  offset="1" style="stop-color:#FFFFFF"/>
			</linearGradient>
			<path class="st6" d="M1048.1,19.3v3.6v1.8l-0.9,4.5l-0.9,5.4c-2.7,7.2-4.5,11.7-3.6,13.5c-0.9,0.9-1.8,2.7-1.8,5.4l-0.9,6.3
				c-1.8,3.6-2.7,7.2-2.7,9.9c-0.9,1.8-1.8,3.6-2.7,6.3c0,5.4-0.9,9-2.7,10.8c0,6.3-0.9,9.9-1.8,10.8l-0.9,0.9v-5.4
				c0-0.9,0-2.7,0.9-4.5V87c0-3.6,0.9-6.3,1.8-8.1l0.9-4.5c0.9-2.7,0.9-4.5,0.9-5.4v-1.8l0.9-3.6v-2.7l0.9-2.7l1.8-10.8v-2.7
				l0.9-2.7c0-0.9,0-3.6,0-5.4c0-4.5,0.9-7.2,1.8-9l-0.9-3.6c0.9-0.9,0.9-1.8,0.9-3.6c0-0.9,0-1.8,0-2.7l0.9-3.6v-1.8
				c0-1.8,0-2.7,0.9-2.7l0.9,0.9h0.9c1.8,0,2.7,0.9,3.6,2.7h1.8v2.7L1048.1,19.3z"/>
			
				<linearGradient id="SVGID_9_" gradientUnits="userSpaceOnUse" x1="2197.1182" y1="1483.2795" x2="2389.9714" y2="1483.2795" gradientTransform="matrix(0.3105 0 0 0.7625 373.9527 -980.6506)">
				<stop  offset="5.586592e-03" style="stop-color:#00002A"/>
				<stop  offset="0.9972" style="stop-color:#2AD2FF"/>
				<stop  offset="1" style="stop-color:#FFFFFF"/>
			</linearGradient>
			<path class="st7" d="M1116,207.2l-0.9,3.6c0,0.9-0.9,5.4-1.8,12.6l-2.7,4.5v2.7h-1.8l-1.8,5.4h-2.7l-1.8,2.7
				c-0.9,0-0.9,0.9-1.8,2.7c-0.9-0.9-1.8-0.9-1.8-0.9c-0.9,0-0.9,0-1.8,0.9v2.7l-2.7-0.9l-2.7,0.9l-1.8-0.9v0.9l-0.9-0.9l-1.8,0.9
				h-0.9c-0.9,0-1.8,0-2.7,0.9l-1.8-1.8l-0.9,1.8l-0.9-1.8l-0.9,1.8c-1.8-1.8-2.7-2.7-3.6-2.7c0,0-0.9,0-1.8,0.9
				c-0.9-0.9-1.8-1.8-2.7-1.8l-3.6-0.9c-0.9,0-1.8,0-2.7,0.9v-1.8l-1.8,2.7c0-0.9-0.9-1.8-0.9-1.8l-0.9-2.7c-3.6,0-5.4-6.3-5.4-18.1
				l3.6-0.9v-2.7l0.9-2.7l0.9,2.7h0.9v1.8l1.8-1.8c0.9,0,0.9,1.8,0.9,2.7s0,1.8-0.9,3.6h1.8v6.3l4.5,1.8l1.8,3.6l0.9-1.8l21.4-3.6
				l7.1-3.6v-1.8l1.8-0.9l0.9-1.8c2.7-0.9,4.5-3.6,6.3-6.3l0.9,0.9v-2.7l0.9-2.7V208l-0.9-2.7v-3.6l-1.8-3.6v-3.6
				c-0.9-0.9-1.8-1.8-1.8-2.7l-0.9,0.9l-1.8-3.6h-0.9l-0.9-2.7h-1.8c0-1.8-0.9-3.6-1.8-3.6h-0.9c-1.8,0-3.6-1.8-5.4-4.5h-1.8
				l-1.8-3.6l-0.9,1.8l-0.9-1.8h-1.8l-1.8-3.6l-5.4-5.4l-1.8-4.5l-5.4-2.7v-0.9l-4.5-8.1l-1.8-13.5l-1.8-6.3l-0.9-19l0.9-1.8
				c0-5.4,0.9-9.9,1.8-14.5c1.8-2.7,2.7-5.4,3.6-9h0.9c0-3.6,1.8-6.3,2.7-9.9l1.8-4.5l9.8-9.9l4.5-1.8l4.5-3.6l7.1,0.9V59h0.9
				c0.9,0,1.8,0.9,1.8,1.8v3.6l1.8,3.6c-0.9,6.3-0.9,9.9-0.9,10.8c0,2.7-0.9,3.6-1.8,3.6c0,0-0.9-2.7-2.7-9l-4.5-0.9l-0.9,0.9
				c-1.8-3.6-2.7-4.5-2.7-4.5s-0.9,0-0.9,0.9l-1.8,2.7c-1.8,0-3.6,0.9-4.5,3.6c-1.8,0.9-3.6,2.7-4.5,5.4h-1.8l-1.8,2.7
				c0,0.9-1.8,1.8-3.6,2.7l-0.9,1.8l-0.9,0.9l-2.7,5.4l-1.8,6.3c-1.8,2.7-2.7,4.5-2.7,5.4l-1.8,17.2l0.9,0.9v0.9
				c0,4.5,0.9,8.1,2.7,11.7v1.8l4.5,6.3h0.9l2.7,6.3h3.6l1.8,4.5l3.6,0.9l0.9,2.7l7.1,5.4c0,1.8,0,2.7,0.9,2.7
				c1.8,0,2.7,0.9,3.6,2.7s1.8,2.7,3.6,2.7v1.8l1.8,1.8h3.6l2.7,4.5c0,2.7,0.9,5.4,1.8,7.2v0.9l0.9,2.7l1.8,0.9l-0.9,2.7
				C1115.1,202.6,1116,204.5,1116,207.2z"/>
			
				<linearGradient id="SVGID_10_" gradientUnits="userSpaceOnUse" x1="694.5162" y1="1847.7788" x2="991.1345" y2="1847.7788" gradientTransform="matrix(0.3105 0 0 0.7914 373.9527 -1009.9822)">
				<stop  offset="5.586592e-03" style="stop-color:#00002A"/>
				<stop  offset="0.9972" style="stop-color:#2AD2FF"/>
				<stop  offset="1" style="stop-color:#FFFFFF"/>
			</linearGradient>
			<path class="st8" d="M589.6,311.9c8.9-3.6,19.7-6.3,30.4-6.3c20.6,0,35.7,12.6,45.6,36.1c9.8,23.5,16.1,56.9,16.1,103.9
				s-5.4,85.8-16.1,112c-10.7,27.1-27.7,41.5-50,41.5c-10.7,0-18.8-0.9-25.9-3.6L589.6,311.9L589.6,311.9z M603.9,567.5
				c3.6,1.8,8.9,1.8,14.3,1.8c31.3,0,47.4-44.3,47.4-122.8c0-67.7-15.2-111.1-45.6-111.1c-7.1,0-13.4,1.8-17,3.6v228.5H603.9z"/>
			
				<linearGradient id="SVGID_11_" gradientUnits="userSpaceOnUse" x1="1045.7765" y1="1876.9845" x2="1103.3438" y2="1876.9845" gradientTransform="matrix(0.3105 0 0 0.7625 373.9527 -980.6506)">
				<stop  offset="5.586592e-03" style="stop-color:#00002A"/>
				<stop  offset="0.9972" style="stop-color:#2AD2FF"/>
				<stop  offset="1" style="stop-color:#FFFFFF"/>
			</linearGradient>
			<path class="st9" d="M716.5,333.6c0,12.6-3.6,22.6-8.9,22.6c-5.4,0-8.9-9.9-8.9-22.6s3.6-22.6,8.9-22.6
				C713,311,716.5,321,716.5,333.6z M700.5,590.1V390.5h14.3v199.6H700.5z"/>
			
				<linearGradient id="SVGID_12_" gradientUnits="userSpaceOnUse" x1="1117.7045" y1="1882.8861" x2="1324.7899" y2="1882.8861" gradientTransform="matrix(0.3105 0 0 0.7625 373.9527 -980.6506)">
				<stop  offset="5.586592e-03" style="stop-color:#00002A"/>
				<stop  offset="0.9972" style="stop-color:#2AD2FF"/>
				<stop  offset="1" style="stop-color:#FFFFFF"/>
			</linearGradient>
			<path class="st10" d="M772.8,555.8l-0.9-25.3H771c-4.5,15.4-13.4,29.8-25,29.8c-16.1,0-25-28.9-25-57.8c0-48.8,17-75,48.3-74.1
				v-4.5c0-16.3-1.8-46.1-17.9-46.1c-7.1,0-15.2,5.4-20.6,14.5l-3.6-24.4c6.3-10.8,16.1-18.1,26.8-18.1c25,0,30.4,41.5,30.4,82.2v75
				c0,17.2,0,34.3,0.9,47.9h-12.5V555.8z M770.2,453.7c-16.1-0.9-34,6.3-34,45.2c0,23.5,6.3,34.3,13.4,34.3
				c10.7,0,17-16.3,19.7-33.4c0.9-3.6,0.9-8.1,0.9-11.7L770.2,453.7L770.2,453.7z"/>
			
				<linearGradient id="SVGID_13_" gradientUnits="userSpaceOnUse" x1="1359.5725" y1="1872.2632" x2="1491.9398" y2="1872.2632" gradientTransform="matrix(0.3105 0 0 0.7625 373.9527 -980.6506)">
				<stop  offset="5.586592e-03" style="stop-color:#00002A"/>
				<stop  offset="0.9972" style="stop-color:#2AD2FF"/>
				<stop  offset="1" style="stop-color:#FFFFFF"/>
			</linearGradient>
			<path class="st11" d="M797,411.3c0-23.5,0-43.4-0.9-62.3h12.5l0.9,38.8h0.9c3.6-27.1,12.5-43.4,22.3-43.4c1.8,0,2.7,0,4.5,0.9
				v34.3c-1.8-0.9-2.7-0.9-5.4-0.9c-10.7,0-17.9,19.9-19.7,47c0,4.5-0.9,10.8-0.9,17.2v106.6H797V411.3L797,411.3z"/>
			
				<linearGradient id="SVGID_14_" gradientUnits="userSpaceOnUse" x1="1529.3419" y1="1936.9189" x2="1774.1084" y2="1936.9189" gradientTransform="matrix(0.3105 0 0 0.7625 373.9527 -980.6506)">
				<stop  offset="5.586592e-03" style="stop-color:#00002A"/>
				<stop  offset="0.9972" style="stop-color:#2AD2FF"/>
				<stop  offset="1" style="stop-color:#FFFFFF"/>
			</linearGradient>
			<path class="st12" d="M864.9,350.8l17.9,118.3c1.8,13.5,3.6,28.9,5.4,40.6l0,0c1.8-11.7,3.6-27.1,5.4-41.5l16.1-117.4h15.2
				l-22.3,142.7c-10.7,68.6-17.9,103.9-27.7,125.5c-7.1,15.4-14.3,21.7-17.9,23.5l-3.6-30.7c3.6-2.7,8-9,12.5-18.1
				c3.6-8.1,8.9-21.7,12.5-40.6c0.9-3.6,0.9-6.3,0.9-9c0-1.8,0-4.5-0.9-9.9L848.9,350H865v0.8H864.9z"/>
		</g>
	</g>
</g>
<g>
	<path class="st13" d="M105.3,387.1c20.9,0,39.5,16,39.5,40.3c0,26.2-17.8,42.6-40.3,42.6C81.1,470,64,452.2,64,429.3
		C64.1,407.4,79.6,387.1,105.3,387.1z M102.9,391.7c-13.7,0-26.1,11.5-26.1,34.3c0,22.7,12.4,39.4,29.8,39.4
		c14.8,0,25.9-11,25.9-34.5C132.4,405.2,118.9,391.7,102.9,391.7z"/>
	<path class="st13" d="M238.2,417.9c-6.2,1-7.3,2.3-9.9,9.1c-3.5,9.4-9.4,26.4-14.6,42.5h-3.8c-4.9-13.1-9.9-25.7-14.6-38.3
		c-4.5,11.2-10,24.8-14.9,38.3h-3.7c-4.4-14.5-9-28.9-14-43.6c-2.2-6.6-3.3-7.3-9.3-8.1v-3.3h25.4v3.3c-7.3,1.2-7.8,1.8-6.1,7.4
		c2.8,9.4,6.1,19.4,9,28.5c4.9-12.4,9.8-25.1,14.5-38.7h3.3c4.5,12.7,9.5,25.9,14.6,39c2.7-7.4,6.6-19.4,8.9-28.3
		c1.6-6.3,0.6-7-7.7-8.1v-3.3h22.8v3.6H238.2z"/>
	<path class="st13" d="M281,469.6c-1.8,0-4.5-1-5.7-2.3c-1.6-1.6-2.3-3.3-2.9-5.5c-4.9,3.3-10.9,7.8-14.6,7.8
		c-8.7,0-14.9-7.2-14.9-15c0-6,3.3-9.9,10-12.2c7.4-2.6,16.6-5.7,19.3-7.9V432c0-8.7-4.4-13.7-10.7-13.7c-2.8,0-4.5,1.3-5.7,2.8
		c-1.3,1.7-2.2,4.4-3.3,7.9c-0.6,2-1.7,2.8-3.5,2.8c-2.3,0-5.4-2.4-5.4-5.4c0-1.7,1.6-3.2,4-4.9c3.5-2.6,10.6-7.1,17.6-8.5
		c3.7,0,7.4,1.1,10.2,3.3c4.3,3.7,6.2,7.8,6.2,14.2V454c0,5.6,2.1,7.3,4.3,7.3c1.5,0,3-0.6,4.4-1.3l1.2,3.4L281,469.6z M272.1,438.7
		c-2.7,1.3-8.5,3.9-11.3,5.1c-4.6,2.1-7.4,4.4-7.4,8.9c0,6.5,4.9,9.4,8.8,9.4c3.2,0,7.6-2,10-4.4C272.1,452,272.1,444.5,272.1,438.7
		z"/>
	<path class="st13" d="M363.5,468.1v-3.4c7.2-0.7,8.1-1.2,8.1-9.8v-20.4c0-8.7-2.9-14.2-10.5-14.2c-4.6,0-8.9,2.6-13.5,6.3
		c0.1,1.5,0.4,2.9,0.4,5.2v23.7c0,7.7,1.1,8.3,7.8,9v3.4h-26.1v-3.4c7.6-0.7,8.7-1.2,8.7-9.3v-21c0-9-2.8-14-10.2-14
		c-4.9,0-9.6,3.3-13.4,6.3v28.7c0,8.1,0.9,8.5,7.8,9.3v3.4h-26.2v-3.4c8.1-0.7,8.8-1.2,8.8-9.3v-25.3c0-7.8-0.5-8.3-7.3-9.5v-3
		c5.7-0.9,11.5-2.4,17-4.9c0,2.9,0,7,0,9.9c2.6-2,5.1-4,9-6.3c3-2,5.7-3.2,9.6-3.2c5.9,0,10.9,3.7,13.3,10c3.4-2.7,6.6-4.8,9.6-6.8
		c2.7-1.7,6.1-3.2,9.6-3.2c9.5,0,15.4,6.8,15.4,18.8v23.5c0,8.2,0.7,8.5,7.7,9.3v3.4h-25.6V468.1z"/>
	<path class="st13" d="M435.3,469.6c-1.8,0-4.5-1-5.7-2.3c-1.6-1.6-2.3-3.3-2.9-5.5c-4.9,3.3-10.9,7.8-14.6,7.8
		c-8.7,0-14.9-7.2-14.9-15c0-6,3.3-9.9,10-12.2c7.4-2.6,16.6-5.7,19.3-7.9V432c0-8.7-4.4-13.7-10.7-13.7c-2.8,0-4.5,1.3-5.7,2.8
		c-1.3,1.7-2.2,4.4-3.3,7.9c-0.6,2-1.7,2.8-3.5,2.8c-2.3,0-5.4-2.4-5.4-5.4c0-1.7,1.6-3.2,4-4.9c3.5-2.6,10.6-7.1,17.6-8.5
		c3.7,0,7.4,1.1,10.2,3.3c4.3,3.7,6.2,7.8,6.2,14.2V454c0,5.6,2.1,7.3,4.3,7.3c1.5,0,3-0.6,4.4-1.3l1.2,3.4L435.3,469.6z
		 M426.4,438.7c-2.7,1.3-8.5,3.9-11.3,5.1c-4.6,2.1-7.4,4.4-7.4,8.9c0,6.5,4.9,9.4,8.8,9.4c3.2,0,7.6-2,10-4.4
		C426.4,452,426.4,444.5,426.4,438.7z"/>
	<path class="st13" d="M443.5,405.9c5.6-2.4,9.5-6.1,9.5-10.2c0-4.3-4.1-5.7-8.1-6.5c-0.9-0.1-1.7-1.8-1.7-3.4
		c0-3.3,2.6-5.5,6.2-5.5c5.4,0,10.7,4.4,10.7,12.4c0,8.7-7.6,14.4-15.2,16.6L443.5,405.9z"/>
	<path class="st13" d="M489.6,429.1c-2.2-7.1-5.4-12-12.8-12c-4.3,0-7.6,3-7.6,7.9c0,5.2,3.5,7.7,10.4,10.9
		c10.5,5,15.7,8.7,15.7,16.7c0,11.2-10.2,17-19.9,17c-6.3,0-12-2-14.5-3.4c-0.6-3.5-1.7-10.2-2.2-14.3l3.5-0.6
		c2.2,7.8,6.5,14.2,15,14.2c4.6,0,8.5-3.2,8.5-8.3c0-5.5-3.3-8.3-9.8-11.5c-8.5-4.1-15.5-8.1-15.5-16.8c0-8.9,7.6-15.7,19-15.7
		c5.1,0,9.3,1.2,11.7,1.6c0.4,2.9,1.2,10.6,1.8,13.5L489.6,429.1z"/>
</g>
</svg>
